<svg data-v-0dd9719b="" version="1.0" xmlns="http://www.w3.org/2000/svg" xmlns:xlink="http://www.w3.org/1999/xlink" width="100%" height="100%" viewBox="0 0 340.000000 250.000000" preserveAspectRatio="xMidYMid meet" color-interpolation-filters="sRGB" style="margin: auto;"> <rect data-v-0dd9719b="" x="0" y="0" width="100%" height="100%" fill="#fff" fill-opacity="1" class="background"></rect> <rect data-v-0dd9719b="" x="0" y="0" width="100%" height="100%" fill="url(#watermark)" fill-opacity="1" class="watermarklayer"></rect> <g data-v-0dd9719b="" fill="#efb706" class="icon-text-wrapper icon-svg-group iconsvg" transform="translate(49.12823486328125,95.91501426696777)"><g class="iconsvg-imagesvg" transform="translate(0,0)"><g><rect fill="#efb706" fill-opacity="0" stroke-width="2" x="0" y="0" width="60" height="58.16997266011285" class="image-rect"></rect> <svg x="0" y="0" width="60" height="58.16997266011285" filtersec="colorsb785591847" class="image-svg-svg primary" style="overflow: visible;"><svg xmlns="http://www.w3.org/2000/svg" viewBox="0 0 935.5299682617188 907"><g><g fill-rule="evenodd"><path d="M114.5 33h320.14l-17.5 42.82H157.32v454.49l-42.82 73.57V33zm386.38 0H821v570.89l-42.8-73.57V75.86H518.38z" fill="#333333"></path><path d="M467.76 734.31L97.11 907 467.76 0l370.66 907-370.66-172.69zm0-645.28v580.22l292.88 136.47L467.76 89zm-336.9 699.36L373 195.78 0 836.71l130.86-48.32zm431.62-592.61l242.18 592.61 130.87 48.32z" fill="#efb706"></path></g></g></svg></svg> <!----></g></g> <g transform="translate(67,0.6748123168945312)"><g data-gra="path-name" fill-rule="" class="tp-name iconsvg-namesvg" transform="translate(0,0)"><g transform="scale(1)"><g><path d="M7.25 3.69L7.25 3.69Q9.58 4.17 10.33 1.85 11.07-0.48 9.89-4.48L9.89-4.48Q9.45-5.98 9.32-6.97 9.18-7.95 9.54-9.95 9.89-11.95 10.55-14.28 11.21-16.61 12.74-21.53L12.74-21.53Q15.12-29.27 14.99-29.62L14.99-29.62Q14.99-29.75 14.77-29.79L14.77-29.79Q14.63-29.79 14.52-29.62 14.41-29.44 13.91-28.37 13.4-27.29 12.57-25.29 11.73-23.29 10.11-19.29L10.11-19.29Q6.77-11.16 6.02-10.11L6.02-10.11Q5.45-9.27 4.48-9.18L4.48-9.18Q4.39-9.18 4.04-9.18L4.04-9.18Q2.94-9.14 2.92-8.77 2.9-8.39 3.96-8.17L3.96-8.17Q6.81-7.56 5.89 0.04L5.89 0.04Q5.71 1.76 6.02 2.61 6.33 3.47 7.25 3.69ZM11.51 3.56L11.51 3.56Q11.78 3.78 12 3.74 12.22 3.69 13.01 3.25L13.01 3.25Q21.49-1.89 25.36-10.02L25.36-10.02Q26.28-11.95 26.54-11.95L26.54-11.95Q26.85-11.95 26.89-11.14 26.94-10.33 26.98-5.76L26.98-5.76Q27.03-0.31 27.33 0.75L27.33 0.75Q27.73 2.02 29.27 2.24L29.27 2.24Q29.93 2.37 33.31 2.42L33.31 2.42Q39.07 2.46 41.04 1.93 43.02 1.41 43.02-0.13L43.02-0.13Q43.02-0.92 42.32-1.63L42.32-1.63Q41.88-2.07 41.77-2.7 41.66-3.34 41.62-5.89L41.62-5.89Q41.57-8.48 41.53-8.92 41.48-9.36 41.31-9.36L41.31-9.36Q41.18-9.36 41.09-9.14 41-8.92 40.69-7.29L40.69-7.29Q40.56-6.77 40.52-6.46L40.52-6.46Q39.77-2.94 39.33-2.33L39.33-2.33Q38.8-1.54 37-1.49L37-1.49Q36.69-1.49 35.11-1.49L35.11-1.49Q34.63-1.49 33.84-1.49L33.84-1.49Q31.6-1.41 31.22-2.18 30.85-2.94 30.89-7.69L30.89-7.69Q30.89-9.36 30.89-10.37L30.89-10.37Q30.89-16.88 30.96-17.82 31.03-18.76 31.55-19.2L31.55-19.2Q32.34-19.82 30.63-20.48L30.63-20.48Q30.41-20.52 30.19-20.61L30.19-20.61Q28.78-21.05 28.59-21.58 28.39-22.1 28.56-24.65L28.56-24.65Q28.56-24.83 28.61-25.14L28.61-25.14Q28.7-26.94 29.09-27.25L29.09-27.25Q29.53-27.55 32.04-27.55L32.04-27.55Q32.43-27.55 32.65-27.55L32.65-27.55Q35.64-27.55 36.04-27.29L36.04-27.29Q36.56-26.98 36.04-25.31L36.04-25.31Q35.99-25.09 35.6-23.86L35.6-23.86Q34.76-21.18 35.07-21.14L35.07-21.14Q35.38-21.09 38.1-23.82L38.1-23.82Q40.17-25.93 40.63-26.32 41.09-26.72 41.62-26.81L41.62-26.81Q42.71-27.03 42.28-27.77L42.28-27.77Q42.01-28.3 40.69-29.62L40.69-29.62Q39.42-30.89 39-30.96 38.58-31.03 37.75-30.1L37.75-30.1Q36.78-29.09 36.28-28.94 35.77-28.78 32.92-28.78L32.92-28.78Q32.56-28.78 31.95-28.78L31.95-28.78Q29.58-28.78 29.2-29.14 28.83-29.49 28.87-31.73L28.87-31.73Q28.87-32.21 28.87-32.48L28.87-32.48Q28.92-34.85 29.05-35.46 29.18-36.08 29.71-36.43L29.71-36.43Q30.54-37 29.09-37.35L29.09-37.35Q28.56-37.49 27.73-37.62L27.73-37.62Q25.18-38.01 24.81-37.95 24.43-37.88 24.52-36.91L24.52-36.91Q24.74-35.02 24.85-32.63 24.96-30.23 24.83-29.75L24.83-29.75Q24.7-29.09 24.35-28.96 23.99-28.83 22.28-28.78L22.28-28.78Q20.3-28.74 19.86-28.98 19.42-29.22 19.2-30.45L19.2-30.45Q18.85-32.61 18.33-30.67L18.33-30.67Q18.28-30.5 18.24-30.28L18.24-30.28Q17.45-26.63 15.25-24.08L15.25-24.08Q14.02-22.68 14.24-21.45 14.46-20.21 16-20.21L16-20.21Q17.45-20.21 18.41-21.71 19.38-23.2 19.6-25.71L19.6-25.71Q19.69-27.07 20.06-27.31 20.43-27.55 22.32-27.55 24.21-27.55 24.52-27.18 24.83-26.81 24.74-24.83L24.74-24.83Q24.17-15.34 21.25-8.88 18.33-2.42 12.39 2.33L12.39 2.33Q11.56 2.94 11.43 3.16 11.29 3.38 11.51 3.56ZM7.03-20.52L7.03-20.52Q8.44-20.04 9.27-21.16 10.11-22.28 9.4-23.73L9.4-23.73Q8.83-24.96 6.92-25.93 5.01-26.89 3.03-26.94L3.03-26.94Q2.37-26.94 2.42-26.81L2.42-26.81Q2.42-26.63 3.12-25.88L3.12-25.88Q5.45-23.55 6.11-21.36L6.11-21.36Q6.28-20.74 7.03-20.52ZM10.28-30.28L10.28-30.28Q12.04-29.58 12.74-31.07L12.74-31.07Q13.49-32.56 12.35-34.19L12.35-34.19Q12-34.76 11.47-35.16L11.47-35.16Q9.67-36.56 7.03-36.96L7.03-36.96Q5.54-37.13 5.58-36.65L5.58-36.65Q5.63-36.43 5.93-36.12L5.93-36.12Q8.26-33.88 9.32-31.42L9.32-31.42Q9.67-30.72 9.8-30.56 9.93-30.41 10.28-30.28ZM49.35 3.69L49.35 3.69Q49.88 4 51.15 3.6 52.43 3.21 53.04 2.59L53.04 2.59Q53.31 2.33 53.33 1.93 53.35 1.54 53.26-0.7L53.26-0.7Q53.09-3.82 53.17-6.2L53.17-6.2Q53.17-8.13 53.13-21.27L53.13-21.27Q53.13-22.68 53.13-25L53.13-25Q53.09-32.21 53.39-33.18L53.39-33.18Q53.61-33.84 54.54-33.79L54.54-33.79Q54.67-33.79 54.89-33.79L54.89-33.79Q55.37-33.75 55.63-33.75L55.63-33.75Q57.39-33.71 57.66-33.4L57.66-33.4Q58.05-32.96 57.26-30.06L57.26-30.06Q57.17-29.79 56.73-28.17L56.73-28.17Q56.03-25.44 55.55-23.91L55.55-23.91Q55.15-22.54 55.15-22.26 55.15-21.97 55.5-21.49L55.5-21.49Q58.45-17.62 58.54-13.01L58.54-13.01Q58.54-10.94 57.94-10.31 57.35-9.67 55.28-9.62L55.28-9.62Q53.7-9.58 53.66-9.45L53.66-9.45Q53.57-9.32 53.68-9.16 53.79-9.01 54.01-8.96L54.01-8.96Q56.25-8.53 56.25-5.32L56.25-5.32Q56.25-4.7 56.69-4.64 57.13-4.57 58.54-4.92L58.54-4.92Q61.44-5.67 62.34-8.7 63.24-11.73 61.83-15.34 60.42-18.94 57.26-21.31L57.26-21.31Q56.47-21.88 56.45-22.35 56.43-22.81 57.13-23.82L57.13-23.82Q59.28-26.85 61-29.71L61-29.71Q63.37-33.66 64.29-32.39L64.29-32.39Q64.38-32.26 64.47-32.12L64.47-32.12Q64.78-31.51 64.78-18.52 64.78-5.54 64.47-0.13L64.47-0.13Q64.29 2.81 64.53 3.34 64.78 3.87 66.18 3.69L66.18 3.69Q67.72 3.47 68.25 2.94 68.77 2.42 68.73 1.19L68.73 1.19Q68.73 1.05 68.73 0.88L68.73 0.88Q68.64-0.31 69.04-0.57L69.04-0.57Q69.57-0.88 73.7-0.88L73.7-0.88Q74.4-0.88 74.75-0.88 75.1-0.88 75.81-0.88L75.81-0.88Q79.94-0.88 80.46-0.57L80.46-0.57Q80.86-0.35 80.77 0.83L80.77 0.83Q80.77 1.05 80.77 1.19L80.77 1.19Q80.73 2.29 80.79 2.57 80.86 2.86 81.17 2.99L81.17 2.99Q81.61 3.16 82.77 2.9 83.94 2.64 84.59 2.15L84.59 2.15Q85.17 1.76 85.23 1.45 85.3 1.14 85.21-1.01L85.21-1.01Q85.08-3.65 85.08-17.62L85.08-17.62Q85.03-31.38 85.25-32.3L85.25-32.3Q85.34-32.7 85.69-32.83L85.69-32.83Q85.78-32.87 85.87-32.92L85.87-32.92Q86.57-33.31 86.73-33.53 86.88-33.75 86.66-34.1 86.44-34.45 85.61-35.16L85.61-35.16Q83.72-36.83 83.14-36.89 82.57-36.96 81.47-35.55L81.47-35.55Q81.39-35.46 81.3-35.33L81.3-35.33Q80.77-34.67 80.09-34.56 79.41-34.45 75.85-34.45L75.85-34.45Q75.01-34.45 74.58-34.45L74.58-34.45Q70.49-34.5 69.48-34.63 68.47-34.76 66.75-35.42L66.75-35.42Q64.42-36.39 64.29-36.17L64.29-36.17Q64.25-36.08 64.29-35.73L64.29-35.73Q64.42-34.63 63.98-34.63L63.98-34.63Q63.54-34.63 62.05-36.04L62.05-36.04Q60.78-37.18 60.45-37.22 60.12-37.27 59.19-36.3L59.19-36.3Q58.23-35.33 57.79-35.18 57.35-35.02 55.63-35.02L55.63-35.02Q54.01-35.02 53.48-35.13 52.95-35.24 50.67-36.17L50.67-36.17Q49.04-36.83 48.87-36.76 48.69-36.69 48.82-35.6L48.82-35.6Q49.17-32.43 49.17-20.65L49.17-20.65Q49.22-5.1 48.91-0.04L48.91-0.04Q48.74 2.5 48.8 2.94 48.87 3.38 49.35 3.69ZM80.38-2.37L80.38-2.37Q80.07-2.15 74.79-2.13 69.52-2.11 69.21-2.33L69.21-2.33Q68.82-2.55 68.75-3.43 68.69-4.31 68.69-9.67L68.69-9.67Q68.69-10.63 68.69-11.95 68.69-13.27 68.64-13.78 68.6-14.28 68.69-15.07 68.77-15.86 68.8-16.06 68.82-16.26 69.13-16.66 69.43-17.05 69.59-17.05 69.74-17.05 70.38-17.18 71.02-17.31 71.43-17.25 71.85-17.18 72.93-17.18 74-17.18 74.79-17.18 75.59-17.18 76.66-17.18 77.74-17.18 78.13-17.25 78.53-17.31 79.19-17.18 79.85-17.05 79.98-17.05 80.11-17.05 80.44-16.63 80.77-16.22 80.77-16.04 80.77-15.86 80.88-15.07 80.99-14.28 80.95-13.78 80.9-13.27 80.9-11.95 80.9-10.63 80.9-9.67L80.9-9.67Q80.9-4.39 80.84-3.49 80.77-2.59 80.38-2.37ZM80.24-18.59L80.24-18.59Q79.89-18.41 74.77-18.44 69.65-18.46 69.3-18.63L69.3-18.63Q68.91-18.81 68.82-19.16L68.82-19.16Q68.69-19.69 68.69-25.84L68.69-25.84Q68.69-26.76 68.69-28.08 68.69-29.4 68.64-29.88 68.6-30.37 68.71-31.16 68.82-31.95 68.82-32.12 68.82-32.3 69.13-32.7 69.43-33.09 69.59-33.09 69.74-33.09 70.38-33.22 71.02-33.35 71.43-33.29 71.85-33.22 72.91-33.22 73.96-33.22 74.75-33.22 75.54-33.22 76.62-33.22 77.7-33.22 78.11-33.29 78.53-33.35 79.17-33.22 79.8-33.09 79.96-33.09 80.11-33.09 80.44-32.7 80.77-32.3 80.75-32.12 80.73-31.95 80.84-31.16 80.95-30.37 80.9-29.88 80.86-29.4 80.86-28.1 80.86-26.81 80.86-25.84L80.86-25.84Q80.86-25.4 80.86-24.57L80.86-24.57Q80.86-20.3 80.79-19.56 80.73-18.81 80.33-18.63L80.33-18.63Q80.29-18.59 80.24-18.59ZM108.59 3.69L108.59 3.69Q109.29 3.87 110.7 3.47 112.1 3.08 112.32 2.68L112.32 2.68Q112.46 2.5 112.32 0.83L112.32 0.83Q112.02-4.92 112.15-5.8L112.15-5.8Q112.37-6.99 113.47-7.21L113.47-7.21Q113.91-7.25 116.76-7.29L116.76-7.29Q117.07-7.29 117.6-7.29L117.6-7.29Q120.76-7.29 121.2-6.94L121.2-6.94Q121.64-6.55 121.6-4.92L121.6-4.92Q121.6-4.66 121.6-4.53L121.6-4.53Q121.55-2.59 120.98-2.31 120.41-2.02 117.11-2.2L117.11-2.2Q114.96-2.33 114.83-2.2L114.83-2.2Q114.57-1.93 115.27-1.71L115.27-1.71Q115.4-1.67 115.58-1.63L115.58-1.63Q119.27-0.97 119.66 1.49L119.66 1.49Q119.75 1.98 120.19 2 120.63 2.02 122.04 1.71L122.04 1.71Q124.06 1.23 124.63 0.29 125.2-0.66 125.29-3.47L125.29-3.47Q125.33-5.67 125.46-6.11 125.6-6.55 126.34-6.94L126.34-6.94Q126.74-7.16 126.87-7.34 127-7.51 126.85-7.8 126.69-8.09 126.28-8.48 125.86-8.88 125.02-9.49L125.02-9.49Q123.57-10.59 123.13-10.61 122.7-10.63 121.9-9.62L121.9-9.62Q121.33-8.92 121.16-8.83L121.16-8.83Q120.54-8.57 115-8.57L115-8.57Q112.06-8.61 110.74-8.61L110.74-8.61Q100.06-8.61 98.35-8.88L98.35-8.88Q97.95-8.96 98-8.75L98-8.75Q98-8.57 98.31-7.95L98.31-7.95Q98.75-6.94 98.96-6.86 99.18-6.77 100.28-6.94L100.28-6.94Q102.57-7.25 105.01-7.29 107.45-7.34 107.75-7.03L107.75-7.03Q108.54-6.28 107.93 1.98L107.93 1.98Q107.89 2.94 108 3.27 108.11 3.6 108.59 3.69ZM92.2-8.7L92.2-8.7Q92.5-8.44 96.24-9.62 99.98-10.81 102.79-12.13L102.79-12.13Q103.8-12.57 104.22-12.66 104.63-12.74 104.92-12.57 105.21-12.39 105.51-11.73L105.51-11.73Q105.82-11.21 106-11.14 106.17-11.07 107.05-11.25L107.05-11.25Q108.9-11.6 114.17-11.6L114.17-11.6Q119.09-11.6 119.49-11.91L119.49-11.91Q119.66-12.08 119.36-12.66L119.36-12.66Q118.92-13.49 119.27-13.49L119.27-13.49Q119.75-13.54 122.04-12.39L122.04-12.39Q125.6-10.63 128.85-9.76L128.85-9.76Q129.59-9.58 129.7-9.6 129.81-9.62 129.99-10.11L129.99-10.11Q130.25-10.94 130.91-11.73 131.57-12.52 132.23-12.88L132.23-12.88Q132.93-13.23 132.8-13.58L132.8-13.58Q132.76-13.75 131-13.97L131-13.97Q124.15-14.85 118.43-17.18L118.43-17.18Q114.92-18.59 115.14-19.47L115.14-19.47Q115.18-19.51 115.22-19.6L115.22-19.6Q115.88-20.43 116.63-19.42L116.63-19.42Q116.85-19.07 117-19.05 117.16-19.03 117.82-19.12L117.82-19.12Q120.23-19.47 124.06-19.6L124.06-19.6Q126.25-19.64 127-19.91 127.75-20.17 127.33-20.76 126.91-21.36 125.2-22.5L125.2-22.5Q124.45-23.03 124.17-22.94 123.88-22.85 122.96-21.8L122.96-21.8Q122.39-21.09 121.35-20.92 120.32-20.74 117.82-20.96L117.82-20.96Q116.02-21.14 116.02-21.01L116.02-21.01Q116.02-20.96 116.02-20.87L116.02-20.87Q116.02-20.61 115.77-20.61 115.53-20.61 114.65-20.87L114.65-20.87Q112.81-21.36 112.81-21.8L112.81-21.8Q112.76-22.1 113.51-22.5L113.51-22.5Q114.26-22.9 114.35-23.16 114.43-23.42 114.35-25.53L114.35-25.53Q114.3-27.86 114.39-28.13L114.39-28.13Q114.61-28.78 116.28-28.87L116.28-28.87Q116.32-28.87 120.76-28.87L120.76-28.87 121.51-28.87Q126.08-28.83 126.65-28.52L126.65-28.52Q127.05-28.21 126.74-27.07L126.74-27.07Q126.74-26.89 126.69-26.81L126.69-26.81Q126.47-25.75 126.1-25.62 125.73-25.49 124.94-26.15L124.94-26.15Q123.53-27.29 123.13-27.33 122.74-27.38 121.99-26.54L121.99-26.54Q121.16-25.58 119.99-25.4 118.83-25.22 116.06-25.62L116.06-25.62Q115.66-25.71 115.66-25.51 115.66-25.31 116.1-24.48L116.1-24.48Q116.46-23.73 116.59-23.64 116.72-23.55 117.16-23.73L117.16-23.73Q118.3-24.13 122.08-24.13L122.08-24.13Q125.29-24.13 125.38-24.17 125.46-24.21 125.62-24.19 125.77-24.17 125.9-24.13 126.04-24.08 126.04-24.04L126.04-24.04Q125.99-23.95 126.17-23.77 126.34-23.6 126.43-23.6L126.43-23.6Q126.83-23.6 129.51-26.37L129.51-26.37Q131.35-28.21 131.92-28.3L131.92-28.3Q133.07-28.48 132.23-29.58L132.23-29.58Q131.84-30.1 130.96-30.98L130.96-30.98Q129.64-32.3 129.24-32.34 128.85-32.39 127.84-31.38L127.84-31.38Q126.96-30.5 126.65-30.37L126.65-30.37Q126.04-30.15 121.25-30.15L121.25-30.15Q120.94-30.15 120.67-30.15L120.67-30.15Q116.19-30.15 115.44-30.21 114.7-30.28 114.48-30.76L114.48-30.76Q114.3-31.07 114.3-32.06 114.3-33.05 114.43-33.35L114.43-33.35Q114.61-33.71 115.05-33.79L115.05-33.79Q115.75-33.88 121.73-33.93L121.73-33.93Q127.09-33.97 127.95-34.01 128.8-34.06 129.02-34.41L129.02-34.41Q129.24-34.72 128.39-35.6 127.53-36.47 126.04-37.49L126.04-37.49Q125.2-38.01 124.94-37.92 124.67-37.84 123.84-36.74L123.84-36.74Q123.71-36.56 123.53-36.25L123.53-36.25Q123.05-35.55 122.39-35.42L122.39-35.42Q121.42-35.2 114.7-35.24L114.7-35.24Q112.15-35.24 110.61-35.24L110.61-35.24Q98.96-35.24 97.87-35.38L97.87-35.38Q96.86-35.46 96.77-35.35 96.68-35.24 97.12-34.41L97.12-34.41Q97.56-33.53 97.78-33.46 98-33.4 99.32-33.57L99.32-33.57Q102.04-33.93 105.8-33.97 109.56-34.01 109.91-33.71 110.26-33.4 110.35-32.3 110.43-31.2 110.13-30.67L110.13-30.67Q109.86-30.28 109.16-30.21 108.46-30.15 104.19-30.15L104.19-30.15Q103.84-30.15 103.18-30.15L103.18-30.15Q99.4-30.15 98.72-30.3 98.04-30.45 97.78-31.33L97.78-31.33Q97.73-31.46 97.73-31.51L97.73-31.51Q97.56-32.08 97.38-32.28 97.21-32.48 97.08-32.28 96.94-32.08 96.9-31.51L96.9-31.51Q96.64-28.65 94.13-26.72L94.13-26.72Q92.9-25.8 92.7-24.79 92.5-23.77 93.38-23.03L93.38-23.03Q94.79-21.88 96.35-23.14 97.91-24.39 98.26-26.94L98.26-26.94Q98.26-27.11 98.31-27.38L98.31-27.38Q98.44-28.43 98.83-28.65L98.83-28.65Q99.36-28.87 103.01-28.87L103.01-28.87Q103.89-28.87 104.37-28.87L104.37-28.87Q104.77-28.87 105.47-28.87L105.47-28.87Q109.38-28.87 109.95-28.56L109.95-28.56Q110.43-28.26 110.35-26.98L110.35-26.98Q110.35-26.94 110.35-26.76L110.35-26.76Q110.3-26.46 110.3-26.28L110.3-26.28Q110.13-22.24 109.64-22.24L109.64-22.24Q109.51-22.24 109.34-21.88L109.34-21.88Q108.98-21.14 108.57-21.16 108.15-21.18 107.09-22.02L107.09-22.02Q106.08-22.81 105.73-22.81 105.38-22.81 104.63-22.02L104.63-22.02Q103.8-21.14 102.41-20.92 101.03-20.7 98.31-21.05L98.31-21.05Q97.78-21.23 97.65-21.09 97.51-20.96 97.56-20.83 97.6-20.7 97.91-20.04L97.91-20.04Q98.31-19.2 98.46-19.14 98.61-19.07 99.58-19.34L99.58-19.34Q100.15-19.51 103.23-19.58 106.3-19.64 106.83-19.47L106.83-19.47Q108.33-19.07 105.12-16.39L105.12-16.39Q100.9-12.96 94.88-10.24L94.88-10.24Q94.04-9.89 93.3-9.58L93.3-9.58Q92.15-9.14 92.11-8.92L92.11-8.92Q92.07-8.83 92.2-8.7ZM113.95-13.05L113.95-13.05Q113.51-12.83 110.52-12.88 107.53-12.92 106.79-13.14L106.79-13.14Q105.95-13.45 107.05-14.24L107.05-14.24Q107.36-14.5 107.89-14.81L107.89-14.81Q110.35-16.44 111.62-17.45L111.62-17.45Q113.03-18.54 113.4-18.52 113.77-18.5 115.14-17.14L115.14-17.14Q116.89-15.21 116.15-15.12L116.15-15.12Q115.8-15.12 115.14-14.28L115.14-14.28Q114.39-13.32 113.95-13.05ZM99.36-24.48L99.36-24.48Q99.71-23.77 99.89-23.66 100.06-23.55 100.42-23.73L100.42-23.73Q101.29-24.13 105.16-24.13L105.16-24.13Q107.67-24.13 108.22-24.19 108.76-24.26 108.85-24.61L108.85-24.61Q109.03-25.22 107.45-26.46L107.45-26.46Q106.44-27.29 106.06-27.29 105.69-27.29 105.12-26.54L105.12-26.54Q104.37-25.58 103.12-25.4 101.87-25.22 99.27-25.62L99.27-25.62Q98.92-25.66 98.92-25.53 98.92-25.4 99.36-24.48ZM139.13 3.03L139.13 3.03Q139.26 3.16 139.53 3.12L139.53 3.12Q141.06 2.77 144.01 2.59L144.01 2.59Q145.68 2.5 160.8 2.5L160.8 2.5Q162.11 2.5 164.4 2.5L164.4 2.5Q173.63 2.5 175.17 2.46 176.7 2.42 176.75 2.11L176.75 2.11Q176.79 2.07 176.79 2.02L176.79 2.02Q176.92 1.67 175.69 0.37 174.46-0.92 173.06-1.89L173.06-1.89Q172.44-2.33 172.16-2.13 171.87-1.93 170.86-0.48L170.86-0.48Q169.94 0.79 169.63 0.97L169.63 0.97Q169.15 1.23 166.07 1.27L166.07 1.27Q165.85 1.27 165.67 1.27L165.67 1.27Q162.69 1.27 162.14 1.19 161.59 1.1 161.54 0.7L161.54 0.7Q161.54 0.44 163.52-1.54 165.5-3.52 166.11-3.82L166.11-3.82Q166.86-4.17 166.51-4.48L166.51-4.48Q165.94-5.01 167.48-5.49L167.48-5.49Q167.61-5.54 167.74-5.58L167.74-5.58Q169.1-5.98 169.32-6.35 169.54-6.72 169.45-8.57L169.45-8.57Q169.32-10.77 169.5-11.47 169.67-12.17 170.33-12.48 170.99-12.79 170.97-13.07 170.95-13.36 170.11-14.19L170.11-14.19Q168.13-16.08 167.39-16.33 166.64-16.57 165.85-15.56L165.85-15.56Q164.97-14.33 164.36-14.15L164.36-14.15Q163.92-14.02 156.93-14.06 149.94-14.11 149.55-14.28L149.55-14.28Q149.33-14.37 147.39-15.16L147.39-15.16Q145.5-16 145.42-15.82L145.42-15.82Q145.37-15.73 145.42-15.47L145.42-15.47Q145.63-13.36 145.63-8.83L145.63-8.83Q145.63-4.88 145.77-4.79L145.77-4.79Q146.16-4.48 148.05-5.01L148.05-5.01Q149.06-5.32 149.41-5.14 149.77-4.97 150.25-3.91L150.25-3.91Q150.95-2.42 151.33-0.88 151.7 0.66 151.39 1.01L151.39 1.01Q151.22 1.27 146.38 1.27 141.55 1.27 138.87 1.05L138.87 1.05Q138.25 1.01 138.25 1.1L138.25 1.1Q138.25 1.23 138.63 2.04 139 2.86 139.13 3.03ZM158.77 1.14L158.77 1.14Q158.51 1.27 156.99 1.27 155.48 1.27 155.26 1.14L155.26 1.14Q154.73 0.88 155.17-0.04L155.17-0.04Q155.87-1.27 154.97-2.72 154.07-4.17 152.01-5.14L152.01-5.14Q150.56-5.8 150.34-6.02L150.34-6.02Q150.16-6.42 150.64-6.64L150.64-6.64Q151-6.81 155.72-6.79 160.44-6.77 160.75-6.59L160.75-6.59Q160.97-6.42 160.97-6.11 160.97-5.8 160.75-4.31L160.75-4.31Q159.92 0.57 158.77 1.14ZM165.01-5.76L165.01-5.76Q164.62-5.23 163.34-5.89L163.34-5.89Q162.77-6.2 162.88-6.44 162.99-6.68 163.74-6.72L163.74-6.72Q164.36-6.77 164.79-6.44 165.23-6.11 165.01-5.76ZM164.66-8.13L164.66-8.13Q164.31-7.95 157.43-7.98 150.56-8 150.25-8.13L150.25-8.13Q149.59-8.44 149.55-10.31 149.5-12.17 150.12-12.57L150.12-12.57Q150.47-12.83 157.46-12.83 164.44-12.83 164.79-12.57L164.79-12.57Q165.41-12.17 165.37-10.31 165.32-8.44 164.66-8.13ZM139.57-16.48L139.57-16.48Q140.98-16 142.38-17.25 143.79-18.5 144.27-20.74L144.27-20.74Q144.58-22.06 145.24-22.24L145.24-22.24Q145.46-22.32 152.73-22.32 160-22.32 165.5-22.24L165.5-22.24Q167.04-22.24 168.18-22.28L168.18-22.28Q169.89-22.32 170.24-22.26 170.6-22.19 170.86-21.84L170.86-21.84Q171.08-21.49 170.77-20.5 170.46-19.51 170.16-18.63 169.85-17.75 170.07-17.67L170.07-17.67Q170.6-17.45 174.2-20.26L174.2-20.26Q175.96-21.62 176.44-21.62L176.44-21.62Q177.76-21.62 176.66-22.98L176.66-22.98Q176.26-23.47 175.61-24.13L175.61-24.13Q174.16-25.62 173.76-25.69 173.36-25.75 172.4-24.79L172.4-24.79Q172.27-24.65 172.05-24.39L172.05-24.39Q171.52-23.73 170.33-23.62 169.15-23.51 163.04-23.51L163.04-23.51Q159.96-23.51 158.03-23.51L158.03-23.51Q145.28-23.51 144.98-23.64L144.98-23.64Q144.36-23.95 144.18-25L144.18-25Q144.01-25.93 143.61-25.93L143.61-25.93Q143.39-25.97 143.31-25.49L143.31-25.49Q142.82-22.68 139.83-20.87L139.83-20.87Q138.16-19.86 138.05-18.44 137.94-17.01 139.57-16.48ZM146.65-17.97L146.65-17.97Q147.08-17.14 147.24-17.05 147.39-16.96 148.18-17.09L148.18-17.09Q149.99-17.36 151.66-17.42 153.33-17.49 159.92-17.53L159.92-17.53Q166.73-17.58 167.92-17.64 169.1-17.71 169.23-18.02L169.23-18.02Q169.28-18.06 169.28-18.11L169.28-18.11Q169.58-18.72 166.82-20.79L166.82-20.79Q165.72-21.62 165.41-21.56 165.1-21.49 164.18-20.3L164.18-20.3Q164.05-20.17 163.87-19.91L163.87-19.91Q163.26-19.12 162.51-18.98 161.76-18.85 157.81-18.85L157.81-18.85Q156.75-18.85 156.18-18.85L156.18-18.85Q148.01-18.85 146.47-19.12L146.47-19.12Q146.21-19.16 146.21-19.03L146.21-19.03Q146.21-18.81 146.65-17.97ZM142.91-28.34L142.91-28.34Q142.82-28.26 143.28-27.38 143.75-26.5 143.96-26.28L143.96-26.28Q147.44-26.81 149.81-26.85L149.81-26.85Q150.12-26.85 160.44-26.89L160.44-26.89Q172.22-26.94 172.79-27.16L172.79-27.16Q172.97-27.25 172.97-27.6L172.97-27.6Q172.97-27.95 171.58-29.27 170.2-30.59 169.15-31.2L169.15-31.2Q168.75-31.42 168.46-31.22 168.18-31.03 167.34-29.88L167.34-29.88Q166.29-28.48 165.87-28.32 165.45-28.17 162.91-28.17L162.91-28.17Q160.22-28.17 159.81-28.39 159.39-28.61 159.39-30.15L159.39-30.15Q159.39-31.82 160.62-32.06 161.85-32.3 168.84-32.12L168.84-32.12Q175.08-31.95 175.56-32.78L175.56-32.78Q175.91-33.35 174.07-34.98L174.07-34.98Q172.22-36.61 171.74-36.69 171.25-36.78 170.42-35.6L170.42-35.6Q169.32-34.06 169.01-33.84L169.01-33.84Q168.49-33.49 165.89-33.49L165.89-33.49Q164.53-33.49 164.31-33.49L164.31-33.49Q160.14-33.49 159.92-33.62L159.92-33.62Q159.39-33.97 159.46-34.72 159.52-35.46 160.09-35.86L160.09-35.86Q160.93-36.43 159.43-36.96L159.43-36.96Q158.55-37.31 156.75-37.75L156.75-37.75Q155.21-38.14 155.08-38.01L155.08-38.01Q155.04-37.88 155.08-37.22L155.08-37.22Q155.35-34.76 155.13-34.28L155.13-34.28Q154.82-33.57 152.58-33.49L152.58-33.49Q152.01-33.49 148.93-33.49L148.93-33.49Q142.73-33.49 140.19-33.71L140.19-33.71Q139.57-33.79 139.57-33.62L139.57-33.62Q139.57-33.44 139.92-32.65L139.92-32.65Q140.32-31.77 140.49-31.68 140.67-31.6 141.77-31.77L141.77-31.77Q144.4-32.12 149.59-32.17L149.59-32.17Q153.54-32.21 154.14-32.17 154.73-32.12 155.04-31.68 155.35-31.25 155.28-29.99 155.21-28.74 154.86-28.43L154.86-28.43Q154.64-28.21 150.42-28.19 146.21-28.17 144.27-28.34L144.27-28.34Q142.95-28.43 142.91-28.34Z" transform="translate(-2.4164788722991943, 38.04249954223633)"></path></g> <!----> <!----> <!----> <!----> <!----> <!----> <!----></g></g> <g data-gra="path-slogan" fill-rule="" class="tp-slogan iconsvg-slogansvg" fill="#efb706" transform="translate(21.53594207763672,47.86785125732422)"><!----> <!----> <g transform="scale(1, 1)"><g transform="scale(1)"><path d="M7.17-6.09L7.17-6.09L6.09-6.09Q6-7.73 3.94-7.83L3.94-7.83Q2.02-7.78 2.02-6.33L2.02-6.33Q2.02-5.39 3.05-5.25L3.05-5.25L5.48-4.69Q7.41-4.22 7.41-2.34L7.41-2.34Q7.36 0.05 4.03 0.14L4.03 0.14Q2.20 0.14 1.45-0.61L1.45-0.61Q0.52-1.31 0.56-2.77L0.56-2.77L1.69-2.77Q1.73-0.80 4.03-0.75L4.03-0.75Q6.28-0.80 6.33-2.20L6.33-2.20Q6.52-3.38 4.45-3.75L4.45-3.75L2.67-4.13Q0.84-4.64 0.84-6.19L0.84-6.19Q0.98-8.72 3.84-8.81L3.84-8.81Q7.08-8.81 7.17-6.09ZM10.03-5.06L14.53-5.06L14.53-8.58L15.70-8.58L15.70 0L14.53 0L14.53-3.98L10.03-3.98L10.03 0L8.86 0L8.86-8.58L10.03-8.58L10.03-5.06ZM18.80-1.03L23.95-1.03L23.95 0L17.63 0L17.63-8.58L23.86-8.58L23.86-7.59L18.80-7.59L18.80-4.92L23.48-4.92L23.48-3.89L18.80-3.89L18.80-1.03ZM26.86-8.58L31.17-1.64L31.17-8.58L32.30-8.58L32.30 0L30.98 0L26.63-6.94L26.58-6.94L26.58 0L25.45 0L25.45-8.58L26.86-8.58ZM41.02-8.58L37.78-3.47L37.78 0L36.61 0L36.61-3.47L33.38-8.58L34.73-8.58L37.17-4.45L39.66-8.58L41.02-8.58ZM47.72 0L46.88-2.48L43.41-2.48L42.52 0L41.34 0L44.58-8.58L45.89-8.58L48.98 0L47.72 0ZM45.14-7.31L43.78-3.52L46.45-3.52L45.19-7.31L45.14-7.31ZM51.42-8.58L55.73-1.64L55.73-8.58L56.86-8.58L56.86 0L55.55 0L51.19-6.94L51.14-6.94L51.14 0L50.02 0L50.02-8.58L51.42-8.58ZM65.06-3.61L62.44-3.61L62.44-4.59L66.19-4.59L66.19 0L65.44 0L65.16-1.08Q64.17 0.09 62.34 0.14L62.34 0.14Q60.61 0.14 59.67-0.75L59.67-0.75Q58.27-2.06 58.31-4.36L58.31-4.36Q58.64-8.63 62.39-8.81L62.39-8.81Q65.58-8.63 66.05-6L66.05-6L64.92-6Q64.45-7.78 62.34-7.83L62.34-7.83Q59.67-7.64 59.53-4.31L59.53-4.31Q59.53-0.75 62.39-0.75L62.39-0.75Q63.42-0.75 64.17-1.31L64.17-1.31Q65.11-2.06 65.06-3.61L65.06-3.61ZM72.14-1.03L77.44-1.03L77.44 0L70.69 0L70.69-0.94L75.94-7.59L71.06-7.59L71.06-8.58L77.44-8.58L77.44-7.59L72.14-1.03ZM79.88-1.03L85.03-1.03L85.03 0L78.70 0L78.70-8.58L84.94-8.58L84.94-7.59L79.88-7.59L79.88-4.92L84.56-4.92L84.56-3.89L79.88-3.89L79.88-1.03ZM90.66-3.70L87.84-3.70L87.84 0L86.67 0L86.67-8.58L90.66-8.58Q93.52-8.58 93.52-6.28L93.52-6.28Q93.52-4.88 92.30-4.22L92.30-4.22Q93.33-3.94 93.33-2.58L93.33-2.58L93.42-1.03Q93.38-0.38 93.84-0.19L93.84-0.19L93.84 0L92.39 0Q92.25-0.61 92.20-2.16L92.20-2.16Q92.25-3.70 90.66-3.70L90.66-3.70ZM90.75-7.64L87.84-7.64L87.84-4.69L90.56-4.69Q92.30-4.69 92.30-6.19L92.30-6.19Q92.30-7.64 90.75-7.64L90.75-7.64ZM101.95-4.27L101.95-4.27Q101.77-7.64 98.95-7.83L98.95-7.83Q96.09-7.69 95.95-4.27L95.95-4.27Q96.09-0.94 98.95-0.80L98.95-0.80Q101.77-0.98 101.95-4.27ZM103.13-4.27L103.13-4.27Q102.84 0 98.95 0.14L98.95 0.14Q95.02 0 94.73-4.27L94.73-4.27Q94.97-8.72 98.95-8.81L98.95-8.81Q102.84-8.67 103.13-4.27ZM114.61-4.27L114.61-4.27Q114.42-7.64 111.61-7.83L111.61-7.83Q108.75-7.69 108.61-4.27L108.61-4.27Q108.75-0.94 111.61-0.80L111.61-0.80Q114.42-0.98 114.61-4.27ZM115.78-4.27L115.78-4.27Q115.50 0 111.61 0.14L111.61 0.14Q107.67 0 107.39-4.27L107.39-4.27Q107.63-8.72 111.61-8.81L111.61-8.81Q115.50-8.67 115.78-4.27ZM118.55-8.58L122.86-1.64L122.86-8.58L123.98-8.58L123.98 0L122.67 0L118.31-6.94L118.27-6.94L118.27 0L117.14 0L117.14-8.58L118.55-8.58ZM127.08-1.03L132.23-1.03L132.23 0L125.91 0L125.91-8.58L132.14-8.58L132.14-7.59L127.08-7.59L127.08-4.92L131.77-4.92L131.77-3.89L127.08-3.89L127.08-1.03Z" transform="translate(-0.5602678571428572, 8.8125)"></path></g></g></g></g></g></svg>